<mxfile host="app.diagrams.net" agent="Mozilla/5.0 (X11; Linux x86_64) AppleWebKit/537.36 (KHTML, like Gecko) Chrome/111.0.0.0 Safari/537.36" version="24.7.8">
  <diagram id="grqTxLV9lohiFQqySqDf" name="Page-1">
    <mxGraphModel dx="1488" dy="2083" grid="1" gridSize="10" guides="1" tooltips="1" connect="1" arrows="1" fold="1" page="1" pageScale="1" pageWidth="827" pageHeight="1169" math="0" shadow="0">
      <root>
        <mxCell id="0" />
        <mxCell id="1" parent="0" />
        <mxCell id="h-Ls1KzMIH0Hlt-CZ5fn-1" value="" style="rounded=0;whiteSpace=wrap;html=1;fillColor=#E6E6E6;" parent="1" vertex="1">
          <mxGeometry x="210" y="290" width="620" height="190" as="geometry" />
        </mxCell>
        <mxCell id="h-Ls1KzMIH0Hlt-CZ5fn-3" value="" style="rounded=0;whiteSpace=wrap;html=1;fillColor=#E6E6E6;" parent="1" vertex="1">
          <mxGeometry x="210" y="510" width="620" height="130" as="geometry" />
        </mxCell>
        <mxCell id="h-Ls1KzMIH0Hlt-CZ5fn-4" value="" style="rounded=0;whiteSpace=wrap;html=1;fillColor=#E6E6E6;" parent="1" vertex="1">
          <mxGeometry x="207" y="70" width="620" height="190" as="geometry" />
        </mxCell>
        <mxCell id="h-Ls1KzMIH0Hlt-CZ5fn-5" value="Networking (OVS)" style="rounded=0;whiteSpace=wrap;html=1;fillColor=#FFFFFF;" parent="1" vertex="1">
          <mxGeometry x="447" y="420" width="140" height="30" as="geometry" />
        </mxCell>
        <mxCell id="h-Ls1KzMIH0Hlt-CZ5fn-6" value="Ceph Storage (Bluestrore)" style="rounded=0;whiteSpace=wrap;html=1;fillColor=#FFFFFF;" parent="1" vertex="1">
          <mxGeometry x="630" y="420" width="170" height="30" as="geometry" />
        </mxCell>
        <mxCell id="h-Ls1KzMIH0Hlt-CZ5fn-9" value="Standard Hardware" style="rounded=0;whiteSpace=wrap;html=1;fillColor=#FFFFFF;" parent="1" vertex="1">
          <mxGeometry x="450" y="555" width="140" height="40" as="geometry" />
        </mxCell>
        <mxCell id="h-Ls1KzMIH0Hlt-CZ5fn-12" value="Compute (Nova)" style="rounded=0;whiteSpace=wrap;html=1;fillColor=#FFFFFF;" parent="1" vertex="1">
          <mxGeometry x="240" y="420" width="140" height="30" as="geometry" />
        </mxCell>
        <mxCell id="h-Ls1KzMIH0Hlt-CZ5fn-13" value="KVM" style="rounded=0;whiteSpace=wrap;html=1;fillColor=#FFFFFF;" parent="1" vertex="1">
          <mxGeometry x="240" y="375" width="350" height="30" as="geometry" />
        </mxCell>
        <mxCell id="h-Ls1KzMIH0Hlt-CZ5fn-14" value="VM" style="rounded=0;whiteSpace=wrap;html=1;fillColor=#FFFFFF;" parent="1" vertex="1">
          <mxGeometry x="240" y="330" width="140" height="30" as="geometry" />
        </mxCell>
        <mxCell id="h-Ls1KzMIH0Hlt-CZ5fn-15" value="Runtime (Containerd)" style="rounded=0;whiteSpace=wrap;html=1;fillColor=#FFFFFF;" parent="1" vertex="1">
          <mxGeometry x="240" y="210" width="140" height="30" as="geometry" />
        </mxCell>
        <mxCell id="h-Ls1KzMIH0Hlt-CZ5fn-16" value="VM" style="rounded=0;whiteSpace=wrap;html=1;fillColor=#FFFFFF;" parent="1" vertex="1">
          <mxGeometry x="450" y="330" width="140" height="30" as="geometry" />
        </mxCell>
        <mxCell id="h-Ls1KzMIH0Hlt-CZ5fn-19" value="CNI (Calico)" style="rounded=0;whiteSpace=wrap;html=1;fillColor=#FFFFFF;" parent="1" vertex="1">
          <mxGeometry x="396" y="210" width="114" height="30" as="geometry" />
        </mxCell>
        <mxCell id="h-Ls1KzMIH0Hlt-CZ5fn-20" value="" style="rounded=0;whiteSpace=wrap;html=1;fillColor=#FFFFFF;" parent="1" vertex="1">
          <mxGeometry x="240" y="110" width="270" height="70" as="geometry" />
        </mxCell>
        <mxCell id="h-Ls1KzMIH0Hlt-CZ5fn-21" value="containers" style="text;html=1;strokeColor=none;fillColor=none;align=center;verticalAlign=middle;whiteSpace=wrap;rounded=0;" parent="1" vertex="1">
          <mxGeometry x="250" y="110" width="60" height="30" as="geometry" />
        </mxCell>
        <mxCell id="h-Ls1KzMIH0Hlt-CZ5fn-22" value="APP" style="rounded=0;whiteSpace=wrap;html=1;fillColor=#FFFFFF;" parent="1" vertex="1">
          <mxGeometry x="274" y="150" width="46" height="20" as="geometry" />
        </mxCell>
        <mxCell id="h-Ls1KzMIH0Hlt-CZ5fn-23" value="APP" style="rounded=0;whiteSpace=wrap;html=1;fillColor=#FFFFFF;" parent="1" vertex="1">
          <mxGeometry x="350" y="150" width="46" height="20" as="geometry" />
        </mxCell>
        <mxCell id="h-Ls1KzMIH0Hlt-CZ5fn-24" value="APP" style="rounded=0;whiteSpace=wrap;html=1;fillColor=#FFFFFF;" parent="1" vertex="1">
          <mxGeometry x="430" y="150" width="46" height="20" as="geometry" />
        </mxCell>
        <mxCell id="h-Ls1KzMIH0Hlt-CZ5fn-48" style="edgeStyle=orthogonalEdgeStyle;rounded=0;orthogonalLoop=1;jettySize=auto;html=1;fontSize=14;" parent="1" source="h-Ls1KzMIH0Hlt-CZ5fn-25" target="h-Ls1KzMIH0Hlt-CZ5fn-46" edge="1">
          <mxGeometry relative="1" as="geometry" />
        </mxCell>
        <mxCell id="h-Ls1KzMIH0Hlt-CZ5fn-25" value="Persistent Volume&amp;nbsp;" style="rounded=0;whiteSpace=wrap;html=1;fillColor=#FFFFFF;" parent="1" vertex="1">
          <mxGeometry x="530" y="210" width="140" height="30" as="geometry" />
        </mxCell>
        <mxCell id="h-Ls1KzMIH0Hlt-CZ5fn-27" value="Registry (Harbor)" style="rounded=0;whiteSpace=wrap;html=1;fillColor=#FFFFFF;" parent="1" vertex="1">
          <mxGeometry x="690" y="210" width="120" height="30" as="geometry" />
        </mxCell>
        <mxCell id="h-Ls1KzMIH0Hlt-CZ5fn-29" value="" style="rounded=0;whiteSpace=wrap;html=1;fillColor=#E6E6E6;" parent="1" vertex="1">
          <mxGeometry x="207" y="-10" width="620" height="50" as="geometry" />
        </mxCell>
        <mxCell id="h-Ls1KzMIH0Hlt-CZ5fn-30" value="" style="rounded=0;whiteSpace=wrap;html=1;fillColor=#E6E6E6;" parent="1" vertex="1">
          <mxGeometry x="880" y="-430" width="160" height="1070" as="geometry" />
        </mxCell>
        <mxCell id="h-Ls1KzMIH0Hlt-CZ5fn-37" value="&lt;b&gt;&lt;font style=&quot;font-size: 14px;&quot;&gt;Openstack&lt;/font&gt;&lt;/b&gt;" style="text;html=1;strokeColor=none;fillColor=none;align=center;verticalAlign=middle;whiteSpace=wrap;rounded=0;" parent="1" vertex="1">
          <mxGeometry x="220" y="290" width="60" height="30" as="geometry" />
        </mxCell>
        <mxCell id="h-Ls1KzMIH0Hlt-CZ5fn-38" value="&lt;b&gt;&lt;font style=&quot;font-size: 14px;&quot;&gt;Kubernetes&lt;/font&gt;&lt;/b&gt;" style="text;html=1;strokeColor=none;fillColor=none;align=center;verticalAlign=middle;whiteSpace=wrap;rounded=0;" parent="1" vertex="1">
          <mxGeometry x="220" y="70" width="60" height="30" as="geometry" />
        </mxCell>
        <mxCell id="h-Ls1KzMIH0Hlt-CZ5fn-39" value="&lt;span style=&quot;font-size: 14px;&quot;&gt;&lt;b&gt;Basic&lt;/b&gt;&lt;/span&gt;" style="text;html=1;strokeColor=none;fillColor=none;align=center;verticalAlign=middle;whiteSpace=wrap;rounded=0;" parent="1" vertex="1">
          <mxGeometry x="204" y="-10" width="60" height="30" as="geometry" />
        </mxCell>
        <mxCell id="h-Ls1KzMIH0Hlt-CZ5fn-40" value="" style="rounded=0;whiteSpace=wrap;html=1;fillColor=#E6E6E6;" parent="1" vertex="1">
          <mxGeometry x="207" y="-80" width="620" height="50" as="geometry" />
        </mxCell>
        <mxCell id="h-Ls1KzMIH0Hlt-CZ5fn-41" value="&lt;span style=&quot;font-size: 14px;&quot;&gt;&lt;b&gt;Database&lt;/b&gt;&lt;/span&gt;" style="text;html=1;strokeColor=none;fillColor=none;align=center;verticalAlign=middle;whiteSpace=wrap;rounded=0;" parent="1" vertex="1">
          <mxGeometry x="207" y="-80" width="73" height="30" as="geometry" />
        </mxCell>
        <mxCell id="h-Ls1KzMIH0Hlt-CZ5fn-42" value="&lt;b&gt;&lt;font style=&quot;font-size: 14px;&quot;&gt;Infrastructure&lt;/font&gt;&lt;/b&gt;" style="text;html=1;strokeColor=none;fillColor=none;align=center;verticalAlign=middle;whiteSpace=wrap;rounded=0;" parent="1" vertex="1">
          <mxGeometry x="204" y="510" width="116" height="30" as="geometry" />
        </mxCell>
        <mxCell id="h-Ls1KzMIH0Hlt-CZ5fn-43" value="" style="rounded=0;whiteSpace=wrap;html=1;fillColor=#E6E6E6;" parent="1" vertex="1">
          <mxGeometry x="207" y="-150" width="620" height="50" as="geometry" />
        </mxCell>
        <mxCell id="h-Ls1KzMIH0Hlt-CZ5fn-44" value="&lt;span style=&quot;font-size: 14px;&quot;&gt;&lt;b&gt;Middleware&lt;/b&gt;&lt;/span&gt;" style="text;html=1;strokeColor=none;fillColor=none;align=center;verticalAlign=middle;whiteSpace=wrap;rounded=0;" parent="1" vertex="1">
          <mxGeometry x="207" y="-150" width="83" height="30" as="geometry" />
        </mxCell>
        <mxCell id="h-Ls1KzMIH0Hlt-CZ5fn-46" value="RBD" style="rounded=0;whiteSpace=wrap;html=1;fillColor=#FFFFFF;" parent="1" vertex="1">
          <mxGeometry x="630" y="375" width="60" height="30" as="geometry" />
        </mxCell>
        <mxCell id="h-Ls1KzMIH0Hlt-CZ5fn-47" value="CephFS" style="rounded=0;whiteSpace=wrap;html=1;fillColor=#FFFFFF;" parent="1" vertex="1">
          <mxGeometry x="730" y="375" width="60" height="30" as="geometry" />
        </mxCell>
        <mxCell id="h-Ls1KzMIH0Hlt-CZ5fn-51" value="" style="endArrow=classic;html=1;rounded=0;fontSize=14;entryX=0.5;entryY=0;entryDx=0;entryDy=0;" parent="1" edge="1">
          <mxGeometry width="50" height="50" relative="1" as="geometry">
            <mxPoint x="600" y="238" as="sourcePoint" />
            <mxPoint x="760" y="373" as="targetPoint" />
            <Array as="points">
              <mxPoint x="600" y="308" />
              <mxPoint x="760" y="308" />
            </Array>
          </mxGeometry>
        </mxCell>
        <mxCell id="h-Ls1KzMIH0Hlt-CZ5fn-53" value="&lt;b&gt;&lt;font style=&quot;font-size: 14px;&quot;&gt;Monitoring&lt;/font&gt;&lt;/b&gt;" style="text;html=1;strokeColor=none;fillColor=none;align=center;verticalAlign=middle;whiteSpace=wrap;rounded=0;" parent="1" vertex="1">
          <mxGeometry x="890" y="-430" width="60" height="30" as="geometry" />
        </mxCell>
        <mxCell id="h-Ls1KzMIH0Hlt-CZ5fn-54" value="Prometheus" style="rounded=0;whiteSpace=wrap;html=1;fillColor=#FFFFFF;" parent="1" vertex="1">
          <mxGeometry x="900" y="-344" width="120" height="30" as="geometry" />
        </mxCell>
        <mxCell id="h-Ls1KzMIH0Hlt-CZ5fn-55" value="Elasticsearch" style="rounded=0;whiteSpace=wrap;html=1;fillColor=#FFFFFF;" parent="1" vertex="1">
          <mxGeometry x="900" y="-157" width="120" height="30" as="geometry" />
        </mxCell>
        <mxCell id="h-Ls1KzMIH0Hlt-CZ5fn-56" value="Envoy" style="rounded=0;whiteSpace=wrap;html=1;fillColor=#FFFFFF;" parent="1" vertex="1">
          <mxGeometry x="900" y="23" width="120" height="30" as="geometry" />
        </mxCell>
        <mxCell id="h-Ls1KzMIH0Hlt-CZ5fn-57" value="MySQL" style="rounded=0;whiteSpace=wrap;html=1;fillColor=#FFFFFF;" parent="1" vertex="1">
          <mxGeometry x="292" y="-70" width="80" height="30" as="geometry" />
        </mxCell>
        <mxCell id="h-Ls1KzMIH0Hlt-CZ5fn-58" value="Oracle" style="rounded=0;whiteSpace=wrap;html=1;fillColor=#FFFFFF;" parent="1" vertex="1">
          <mxGeometry x="400" y="-70" width="80" height="30" as="geometry" />
        </mxCell>
        <mxCell id="h-Ls1KzMIH0Hlt-CZ5fn-59" value="Redis" style="rounded=0;whiteSpace=wrap;html=1;fillColor=#FFFFFF;" parent="1" vertex="1">
          <mxGeometry x="510" y="-70" width="80" height="30" as="geometry" />
        </mxCell>
        <mxCell id="h-Ls1KzMIH0Hlt-CZ5fn-60" value="Elasticsearch" style="rounded=0;whiteSpace=wrap;html=1;fillColor=#FFFFFF;" parent="1" vertex="1">
          <mxGeometry x="620" y="-70" width="80" height="30" as="geometry" />
        </mxCell>
        <mxCell id="h-Ls1KzMIH0Hlt-CZ5fn-61" value="Istio" style="rounded=0;whiteSpace=wrap;html=1;fillColor=#FFFFFF;" parent="1" vertex="1">
          <mxGeometry x="292" width="80" height="30" as="geometry" />
        </mxCell>
        <mxCell id="h-Ls1KzMIH0Hlt-CZ5fn-62" value="CertManager" style="rounded=0;whiteSpace=wrap;html=1;fillColor=#FFFFFF;" parent="1" vertex="1">
          <mxGeometry x="400" width="80" height="30" as="geometry" />
        </mxCell>
        <mxCell id="h-Ls1KzMIH0Hlt-CZ5fn-63" value="Ingress" style="rounded=0;whiteSpace=wrap;html=1;fillColor=#FFFFFF;" parent="1" vertex="1">
          <mxGeometry x="510" width="80" height="30" as="geometry" />
        </mxCell>
        <mxCell id="h-Ls1KzMIH0Hlt-CZ5fn-65" value="ArgoCD" style="rounded=0;whiteSpace=wrap;html=1;fillColor=#FFFFFF;" parent="1" vertex="1">
          <mxGeometry x="620" width="80" height="30" as="geometry" />
        </mxCell>
        <mxCell id="h-Ls1KzMIH0Hlt-CZ5fn-66" value="Kafka" style="rounded=0;whiteSpace=wrap;html=1;fillColor=#FFFFFF;" parent="1" vertex="1">
          <mxGeometry x="294" y="-140" width="80" height="30" as="geometry" />
        </mxCell>
        <mxCell id="h-Ls1KzMIH0Hlt-CZ5fn-67" value="Nginx" style="rounded=0;whiteSpace=wrap;html=1;fillColor=#FFFFFF;" parent="1" vertex="1">
          <mxGeometry x="400" y="-140" width="80" height="30" as="geometry" />
        </mxCell>
        <mxCell id="h-Ls1KzMIH0Hlt-CZ5fn-68" value="..." style="rounded=0;whiteSpace=wrap;html=1;fillColor=#FFFFFF;" parent="1" vertex="1">
          <mxGeometry x="510" y="-140" width="80" height="30" as="geometry" />
        </mxCell>
        <mxCell id="h-Ls1KzMIH0Hlt-CZ5fn-69" value="..." style="rounded=0;whiteSpace=wrap;html=1;fillColor=#FFFFFF;" parent="1" vertex="1">
          <mxGeometry x="730" width="80" height="30" as="geometry" />
        </mxCell>
        <mxCell id="h-Ls1KzMIH0Hlt-CZ5fn-70" value="" style="endArrow=none;dashed=1;html=1;dashPattern=1 3;strokeWidth=2;rounded=0;fontSize=14;" parent="1" edge="1">
          <mxGeometry width="50" height="50" relative="1" as="geometry">
            <mxPoint x="80" y="498" as="sourcePoint" />
            <mxPoint x="870" y="500" as="targetPoint" />
          </mxGeometry>
        </mxCell>
        <mxCell id="h-Ls1KzMIH0Hlt-CZ5fn-71" value="" style="endArrow=none;dashed=1;html=1;dashPattern=1 3;strokeWidth=2;rounded=0;fontSize=14;" parent="1" edge="1">
          <mxGeometry width="50" height="50" relative="1" as="geometry">
            <mxPoint x="80" y="56" as="sourcePoint" />
            <mxPoint x="870" y="56" as="targetPoint" />
          </mxGeometry>
        </mxCell>
        <mxCell id="h-Ls1KzMIH0Hlt-CZ5fn-72" value="Infrastructure Layer" style="text;html=1;align=center;verticalAlign=middle;resizable=0;points=[];autosize=1;strokeColor=none;fillColor=none;fontSize=14;" parent="1" vertex="1">
          <mxGeometry x="64" y="500" width="140" height="30" as="geometry" />
        </mxCell>
        <mxCell id="h-Ls1KzMIH0Hlt-CZ5fn-73" value="IaaS Layer" style="text;html=1;align=center;verticalAlign=middle;resizable=0;points=[];autosize=1;strokeColor=none;fillColor=none;fontSize=14;" parent="1" vertex="1">
          <mxGeometry x="70" y="60" width="90" height="30" as="geometry" />
        </mxCell>
        <mxCell id="h-Ls1KzMIH0Hlt-CZ5fn-81" value="" style="endArrow=none;dashed=1;html=1;rounded=0;fontSize=14;entryX=1.015;entryY=0.078;entryDx=0;entryDy=0;entryPerimeter=0;" parent="1" edge="1">
          <mxGeometry width="50" height="50" relative="1" as="geometry">
            <mxPoint x="880" y="-361" as="sourcePoint" />
            <mxPoint x="1042.4" y="-361.3800000000001" as="targetPoint" />
          </mxGeometry>
        </mxCell>
        <mxCell id="h-Ls1KzMIH0Hlt-CZ5fn-82" value="Metrics" style="text;html=1;strokeColor=none;fillColor=none;align=center;verticalAlign=middle;whiteSpace=wrap;rounded=0;fontSize=14;" parent="1" vertex="1">
          <mxGeometry x="930" y="-386" width="60" height="30" as="geometry" />
        </mxCell>
        <mxCell id="h-Ls1KzMIH0Hlt-CZ5fn-85" value="" style="endArrow=none;dashed=1;html=1;rounded=0;fontSize=14;entryX=1.015;entryY=0.078;entryDx=0;entryDy=0;entryPerimeter=0;" parent="1" edge="1">
          <mxGeometry width="50" height="50" relative="1" as="geometry">
            <mxPoint x="880" y="-175" as="sourcePoint" />
            <mxPoint x="1042.4" y="-175.3800000000001" as="targetPoint" />
          </mxGeometry>
        </mxCell>
        <mxCell id="h-Ls1KzMIH0Hlt-CZ5fn-86" value="Logs" style="text;html=1;strokeColor=none;fillColor=none;align=center;verticalAlign=middle;whiteSpace=wrap;rounded=0;fontSize=14;" parent="1" vertex="1">
          <mxGeometry x="930" y="-200" width="60" height="30" as="geometry" />
        </mxCell>
        <mxCell id="h-Ls1KzMIH0Hlt-CZ5fn-87" value="Filebeat" style="rounded=0;whiteSpace=wrap;html=1;fillColor=#FFFFFF;" parent="1" vertex="1">
          <mxGeometry x="900" y="-117" width="120" height="30" as="geometry" />
        </mxCell>
        <mxCell id="h-Ls1KzMIH0Hlt-CZ5fn-89" value="Logstash" style="rounded=0;whiteSpace=wrap;html=1;fillColor=#FFFFFF;" parent="1" vertex="1">
          <mxGeometry x="900" y="-77" width="120" height="30" as="geometry" />
        </mxCell>
        <mxCell id="h-Ls1KzMIH0Hlt-CZ5fn-90" value="" style="endArrow=none;dashed=1;html=1;rounded=0;fontSize=14;entryX=1.015;entryY=0.078;entryDx=0;entryDy=0;entryPerimeter=0;" parent="1" edge="1">
          <mxGeometry width="50" height="50" relative="1" as="geometry">
            <mxPoint x="880" y="5" as="sourcePoint" />
            <mxPoint x="1042.4" y="4.619999999999891" as="targetPoint" />
          </mxGeometry>
        </mxCell>
        <mxCell id="h-Ls1KzMIH0Hlt-CZ5fn-91" value="Tracing" style="text;html=1;strokeColor=none;fillColor=none;align=center;verticalAlign=middle;whiteSpace=wrap;rounded=0;fontSize=14;" parent="1" vertex="1">
          <mxGeometry x="930" y="-20" width="60" height="30" as="geometry" />
        </mxCell>
        <mxCell id="h-Ls1KzMIH0Hlt-CZ5fn-92" value="SkyWalking" style="rounded=0;whiteSpace=wrap;html=1;fillColor=#FFFFFF;" parent="1" vertex="1">
          <mxGeometry x="900" y="73" width="120" height="30" as="geometry" />
        </mxCell>
        <mxCell id="h-Ls1KzMIH0Hlt-CZ5fn-97" value="" style="endArrow=none;dashed=1;html=1;rounded=0;fontSize=14;entryX=1.015;entryY=0.078;entryDx=0;entryDy=0;entryPerimeter=0;" parent="1" edge="1">
          <mxGeometry width="50" height="50" relative="1" as="geometry">
            <mxPoint x="880" y="155" as="sourcePoint" />
            <mxPoint x="1042.4" y="154.6199999999999" as="targetPoint" />
          </mxGeometry>
        </mxCell>
        <mxCell id="h-Ls1KzMIH0Hlt-CZ5fn-98" value="Presentation" style="text;html=1;strokeColor=none;fillColor=none;align=center;verticalAlign=middle;whiteSpace=wrap;rounded=0;fontSize=14;" parent="1" vertex="1">
          <mxGeometry x="930" y="130" width="60" height="30" as="geometry" />
        </mxCell>
        <mxCell id="h-Ls1KzMIH0Hlt-CZ5fn-99" value="Grafana" style="rounded=0;whiteSpace=wrap;html=1;fillColor=#FFFFFF;" parent="1" vertex="1">
          <mxGeometry x="900" y="173" width="120" height="30" as="geometry" />
        </mxCell>
        <mxCell id="h-Ls1KzMIH0Hlt-CZ5fn-100" value="Kibana" style="rounded=0;whiteSpace=wrap;html=1;fillColor=#FFFFFF;" parent="1" vertex="1">
          <mxGeometry x="900" y="218" width="120" height="30" as="geometry" />
        </mxCell>
        <mxCell id="h-Ls1KzMIH0Hlt-CZ5fn-101" value="" style="rounded=0;whiteSpace=wrap;html=1;fillColor=#E6E6E6;" parent="1" vertex="1">
          <mxGeometry x="207" y="-430" width="620" height="260" as="geometry" />
        </mxCell>
        <mxCell id="h-Ls1KzMIH0Hlt-CZ5fn-122" style="edgeStyle=orthogonalEdgeStyle;rounded=0;orthogonalLoop=1;jettySize=auto;html=1;entryX=0;entryY=0.5;entryDx=0;entryDy=0;fontSize=14;" parent="1" source="h-Ls1KzMIH0Hlt-CZ5fn-103" target="h-Ls1KzMIH0Hlt-CZ5fn-104" edge="1">
          <mxGeometry relative="1" as="geometry" />
        </mxCell>
        <mxCell id="h-Ls1KzMIH0Hlt-CZ5fn-103" value="GitLab" style="rounded=0;whiteSpace=wrap;html=1;fillColor=#FFFFFF;" parent="1" vertex="1">
          <mxGeometry x="314" y="-360" width="80" height="30" as="geometry" />
        </mxCell>
        <mxCell id="h-Ls1KzMIH0Hlt-CZ5fn-125" style="edgeStyle=orthogonalEdgeStyle;rounded=0;orthogonalLoop=1;jettySize=auto;html=1;fontSize=14;" parent="1" source="h-Ls1KzMIH0Hlt-CZ5fn-104" target="h-Ls1KzMIH0Hlt-CZ5fn-123" edge="1">
          <mxGeometry relative="1" as="geometry" />
        </mxCell>
        <mxCell id="h-Ls1KzMIH0Hlt-CZ5fn-104" value="Jenkins" style="rounded=0;whiteSpace=wrap;html=1;fillColor=#FFFFFF;" parent="1" vertex="1">
          <mxGeometry x="480" y="-360" width="80" height="30" as="geometry" />
        </mxCell>
        <mxCell id="h-Ls1KzMIH0Hlt-CZ5fn-123" value="Harbor" style="rounded=0;whiteSpace=wrap;html=1;fillColor=#FFFFFF;" parent="1" vertex="1">
          <mxGeometry x="480" y="-270" width="80" height="30" as="geometry" />
        </mxCell>
        <mxCell id="h-Ls1KzMIH0Hlt-CZ5fn-129" style="edgeStyle=orthogonalEdgeStyle;rounded=0;orthogonalLoop=1;jettySize=auto;html=1;fontSize=14;" parent="1" source="h-Ls1KzMIH0Hlt-CZ5fn-126" target="h-Ls1KzMIH0Hlt-CZ5fn-128" edge="1">
          <mxGeometry relative="1" as="geometry" />
        </mxCell>
        <mxCell id="h-Ls1KzMIH0Hlt-CZ5fn-139" style="edgeStyle=orthogonalEdgeStyle;rounded=0;orthogonalLoop=1;jettySize=auto;html=1;entryX=0.5;entryY=1;entryDx=0;entryDy=0;fontSize=14;" parent="1" source="h-Ls1KzMIH0Hlt-CZ5fn-126" target="h-Ls1KzMIH0Hlt-CZ5fn-103" edge="1">
          <mxGeometry relative="1" as="geometry" />
        </mxCell>
        <mxCell id="h-Ls1KzMIH0Hlt-CZ5fn-141" style="edgeStyle=orthogonalEdgeStyle;rounded=0;orthogonalLoop=1;jettySize=auto;html=1;entryX=0.5;entryY=1;entryDx=0;entryDy=0;fontSize=14;" parent="1" source="h-Ls1KzMIH0Hlt-CZ5fn-126" target="h-Ls1KzMIH0Hlt-CZ5fn-123" edge="1">
          <mxGeometry relative="1" as="geometry" />
        </mxCell>
        <mxCell id="h-Ls1KzMIH0Hlt-CZ5fn-126" value="ArgoCD" style="rounded=0;whiteSpace=wrap;html=1;fillColor=#FFFFFF;" parent="1" vertex="1">
          <mxGeometry x="480" y="-210" width="80" height="30" as="geometry" />
        </mxCell>
        <mxCell id="h-Ls1KzMIH0Hlt-CZ5fn-128" value="k8s" style="rounded=0;whiteSpace=wrap;html=1;fillColor=#FFFFFF;" parent="1" vertex="1">
          <mxGeometry x="640" y="-210" width="80" height="30" as="geometry" />
        </mxCell>
        <mxCell id="h-Ls1KzMIH0Hlt-CZ5fn-130" value="build and test" style="text;html=1;strokeColor=none;fillColor=none;align=center;verticalAlign=middle;whiteSpace=wrap;rounded=0;fontSize=14;" parent="1" vertex="1">
          <mxGeometry x="475" y="-330" width="90" height="30" as="geometry" />
        </mxCell>
        <mxCell id="h-Ls1KzMIH0Hlt-CZ5fn-131" value="push" style="text;html=1;strokeColor=none;fillColor=none;align=center;verticalAlign=middle;whiteSpace=wrap;rounded=0;fontSize=14;" parent="1" vertex="1">
          <mxGeometry x="497" y="-300" width="90" height="30" as="geometry" />
        </mxCell>
        <mxCell id="h-Ls1KzMIH0Hlt-CZ5fn-134" value="Cont. Integration" style="text;html=1;strokeColor=none;fillColor=none;align=center;verticalAlign=middle;whiteSpace=wrap;rounded=0;fontSize=14;" parent="1" vertex="1">
          <mxGeometry x="194" y="-391" width="143" height="30" as="geometry" />
        </mxCell>
        <mxCell id="h-Ls1KzMIH0Hlt-CZ5fn-135" value="" style="endArrow=none;dashed=1;html=1;rounded=0;fontSize=14;exitX=-0.003;exitY=0.119;exitDx=0;exitDy=0;exitPerimeter=0;entryX=1.006;entryY=0.134;entryDx=0;entryDy=0;entryPerimeter=0;" parent="1" edge="1">
          <mxGeometry width="50" height="50" relative="1" as="geometry">
            <mxPoint x="207.2100000000001" y="-300.0000000000001" as="sourcePoint" />
            <mxPoint x="832.7900000000001" y="-296.55000000000007" as="targetPoint" />
          </mxGeometry>
        </mxCell>
        <mxCell id="h-Ls1KzMIH0Hlt-CZ5fn-136" value="Cont. Delivery" style="text;html=1;strokeColor=none;fillColor=none;align=center;verticalAlign=middle;whiteSpace=wrap;rounded=0;fontSize=14;" parent="1" vertex="1">
          <mxGeometry x="206" y="-300" width="102" height="30" as="geometry" />
        </mxCell>
        <mxCell id="h-Ls1KzMIH0Hlt-CZ5fn-137" value="" style="endArrow=none;dashed=1;html=1;rounded=0;fontSize=14;exitX=-0.003;exitY=0.119;exitDx=0;exitDy=0;exitPerimeter=0;entryX=1.006;entryY=0.134;entryDx=0;entryDy=0;entryPerimeter=0;" parent="1" edge="1">
          <mxGeometry width="50" height="50" relative="1" as="geometry">
            <mxPoint x="207.21000000000004" y="-230" as="sourcePoint" />
            <mxPoint x="832.79" y="-226.55000000000018" as="targetPoint" />
          </mxGeometry>
        </mxCell>
        <mxCell id="h-Ls1KzMIH0Hlt-CZ5fn-138" value="Cont. Deployment" style="text;html=1;strokeColor=none;fillColor=none;align=center;verticalAlign=middle;whiteSpace=wrap;rounded=0;fontSize=14;" parent="1" vertex="1">
          <mxGeometry x="207" y="-230" width="123" height="30" as="geometry" />
        </mxCell>
        <mxCell id="h-Ls1KzMIH0Hlt-CZ5fn-140" value="watch" style="text;html=1;strokeColor=none;fillColor=none;align=center;verticalAlign=middle;whiteSpace=wrap;rounded=0;fontSize=14;" parent="1" vertex="1">
          <mxGeometry x="357" y="-220" width="90" height="30" as="geometry" />
        </mxCell>
        <mxCell id="h-Ls1KzMIH0Hlt-CZ5fn-142" value="watch" style="text;html=1;strokeColor=none;fillColor=none;align=center;verticalAlign=middle;whiteSpace=wrap;rounded=0;fontSize=14;" parent="1" vertex="1">
          <mxGeometry x="496" y="-236" width="90" height="30" as="geometry" />
        </mxCell>
        <mxCell id="h-Ls1KzMIH0Hlt-CZ5fn-143" value="deploy" style="text;html=1;strokeColor=none;fillColor=none;align=center;verticalAlign=middle;whiteSpace=wrap;rounded=0;fontSize=14;" parent="1" vertex="1">
          <mxGeometry x="555" y="-220" width="90" height="30" as="geometry" />
        </mxCell>
        <mxCell id="h-Ls1KzMIH0Hlt-CZ5fn-144" value="webhook" style="text;html=1;strokeColor=none;fillColor=none;align=center;verticalAlign=middle;whiteSpace=wrap;rounded=0;fontSize=14;" parent="1" vertex="1">
          <mxGeometry x="386" y="-370" width="90" height="30" as="geometry" />
        </mxCell>
        <mxCell id="h-Ls1KzMIH0Hlt-CZ5fn-151" style="edgeStyle=orthogonalEdgeStyle;rounded=0;orthogonalLoop=1;jettySize=auto;html=1;entryX=1;entryY=0.5;entryDx=0;entryDy=0;fontSize=14;" parent="1" source="h-Ls1KzMIH0Hlt-CZ5fn-145" target="h-Ls1KzMIH0Hlt-CZ5fn-104" edge="1">
          <mxGeometry relative="1" as="geometry" />
        </mxCell>
        <mxCell id="h-Ls1KzMIH0Hlt-CZ5fn-145" value="Nexus" style="rounded=0;whiteSpace=wrap;html=1;fillColor=#FFFFFF;" parent="1" vertex="1">
          <mxGeometry x="630" y="-380" width="80" height="20" as="geometry" />
        </mxCell>
        <mxCell id="h-Ls1KzMIH0Hlt-CZ5fn-152" style="edgeStyle=orthogonalEdgeStyle;rounded=0;orthogonalLoop=1;jettySize=auto;html=1;fontSize=14;" parent="1" source="h-Ls1KzMIH0Hlt-CZ5fn-146" edge="1">
          <mxGeometry relative="1" as="geometry">
            <mxPoint x="560" y="-343" as="targetPoint" />
          </mxGeometry>
        </mxCell>
        <mxCell id="h-Ls1KzMIH0Hlt-CZ5fn-146" value="Sonar" style="rounded=0;whiteSpace=wrap;html=1;fillColor=#FFFFFF;" parent="1" vertex="1">
          <mxGeometry x="630" y="-353" width="80" height="20" as="geometry" />
        </mxCell>
        <mxCell id="h-Ls1KzMIH0Hlt-CZ5fn-147" value="" style="endArrow=none;dashed=1;html=1;rounded=0;fontSize=14;exitX=-0.003;exitY=0.119;exitDx=0;exitDy=0;exitPerimeter=0;entryX=1.006;entryY=0.134;entryDx=0;entryDy=0;entryPerimeter=0;" parent="1" edge="1">
          <mxGeometry width="50" height="50" relative="1" as="geometry">
            <mxPoint x="207.2100000000001" y="-390.0000000000001" as="sourcePoint" />
            <mxPoint x="832.7900000000001" y="-386.55000000000007" as="targetPoint" />
          </mxGeometry>
        </mxCell>
        <mxCell id="h-Ls1KzMIH0Hlt-CZ5fn-153" style="edgeStyle=orthogonalEdgeStyle;rounded=0;orthogonalLoop=1;jettySize=auto;html=1;entryX=1;entryY=0.5;entryDx=0;entryDy=0;fontSize=14;" parent="1" source="h-Ls1KzMIH0Hlt-CZ5fn-150" target="h-Ls1KzMIH0Hlt-CZ5fn-104" edge="1">
          <mxGeometry relative="1" as="geometry" />
        </mxCell>
        <mxCell id="h-Ls1KzMIH0Hlt-CZ5fn-150" value="..." style="rounded=0;whiteSpace=wrap;html=1;fillColor=#FFFFFF;" parent="1" vertex="1">
          <mxGeometry x="630" y="-325" width="80" height="20" as="geometry" />
        </mxCell>
        <mxCell id="h-Ls1KzMIH0Hlt-CZ5fn-154" value="&lt;span style=&quot;font-size: 14px;&quot;&gt;&lt;b&gt;DevOps&lt;/b&gt;&lt;/span&gt;" style="text;html=1;strokeColor=none;fillColor=none;align=center;verticalAlign=middle;whiteSpace=wrap;rounded=0;" parent="1" vertex="1">
          <mxGeometry x="207" y="-430" width="60" height="30" as="geometry" />
        </mxCell>
        <mxCell id="h-Ls1KzMIH0Hlt-CZ5fn-156" style="edgeStyle=orthogonalEdgeStyle;rounded=0;orthogonalLoop=1;jettySize=auto;html=1;entryX=0;entryY=0.5;entryDx=0;entryDy=0;fontSize=14;exitX=0.87;exitY=0.65;exitDx=0;exitDy=0;exitPerimeter=0;" parent="1" source="h-Ls1KzMIH0Hlt-CZ5fn-155" target="h-Ls1KzMIH0Hlt-CZ5fn-103" edge="1">
          <mxGeometry relative="1" as="geometry" />
        </mxCell>
        <mxCell id="h-Ls1KzMIH0Hlt-CZ5fn-155" value="" style="sketch=0;aspect=fixed;pointerEvents=1;shadow=0;dashed=0;html=1;strokeColor=none;labelPosition=center;verticalLabelPosition=bottom;verticalAlign=top;align=center;fillColor=#00188D;shape=mxgraph.azure.user" parent="1" vertex="1">
          <mxGeometry x="146.5" y="-361" width="23.5" height="25" as="geometry" />
        </mxCell>
        <mxCell id="h-Ls1KzMIH0Hlt-CZ5fn-159" value="push" style="text;html=1;strokeColor=none;fillColor=none;align=center;verticalAlign=middle;whiteSpace=wrap;rounded=0;fontSize=14;" parent="1" vertex="1">
          <mxGeometry x="195" y="-353" width="90" height="30" as="geometry" />
        </mxCell>
        <mxCell id="h-Ls1KzMIH0Hlt-CZ5fn-160" value="dev" style="text;html=1;align=center;verticalAlign=middle;resizable=0;points=[];autosize=1;strokeColor=none;fillColor=none;fontSize=14;" parent="1" vertex="1">
          <mxGeometry x="133.25" y="-340" width="50" height="30" as="geometry" />
        </mxCell>
        <mxCell id="h-Ls1KzMIH0Hlt-CZ5fn-161" value="" style="endArrow=none;dashed=1;html=1;dashPattern=1 3;strokeWidth=2;rounded=0;fontSize=14;" parent="1" edge="1">
          <mxGeometry width="50" height="50" relative="1" as="geometry">
            <mxPoint x="80" y="-450" as="sourcePoint" />
            <mxPoint x="870" y="-450" as="targetPoint" />
          </mxGeometry>
        </mxCell>
        <mxCell id="h-Ls1KzMIH0Hlt-CZ5fn-162" value="PaaS Layer" style="text;html=1;align=center;verticalAlign=middle;resizable=0;points=[];autosize=1;strokeColor=none;fillColor=none;fontSize=14;" parent="1" vertex="1">
          <mxGeometry x="65" y="-446" width="100" height="30" as="geometry" />
        </mxCell>
        <mxCell id="OxKtT8ArJ8ornB0nfrq7-1" value="..." style="rounded=0;whiteSpace=wrap;html=1;fillColor=#FFFFFF;" parent="1" vertex="1">
          <mxGeometry x="730" y="-70" width="80" height="30" as="geometry" />
        </mxCell>
        <mxCell id="OxKtT8ArJ8ornB0nfrq7-2" value="Exporters" style="rounded=0;whiteSpace=wrap;html=1;fillColor=#FFFFFF;" parent="1" vertex="1">
          <mxGeometry x="900" y="-300" width="120" height="30" as="geometry" />
        </mxCell>
        <mxCell id="OxKtT8ArJ8ornB0nfrq7-3" value="" style="endArrow=none;dashed=1;html=1;rounded=0;fontSize=14;entryX=1.015;entryY=0.078;entryDx=0;entryDy=0;entryPerimeter=0;" parent="1" edge="1">
          <mxGeometry width="50" height="50" relative="1" as="geometry">
            <mxPoint x="880" y="305" as="sourcePoint" />
            <mxPoint x="1042.4" y="304.6199999999999" as="targetPoint" />
          </mxGeometry>
        </mxCell>
        <mxCell id="OxKtT8ArJ8ornB0nfrq7-4" value="Alerting" style="text;html=1;strokeColor=none;fillColor=none;align=center;verticalAlign=middle;whiteSpace=wrap;rounded=0;fontSize=14;" parent="1" vertex="1">
          <mxGeometry x="930" y="280" width="60" height="30" as="geometry" />
        </mxCell>
        <mxCell id="OxKtT8ArJ8ornB0nfrq7-5" value="AlertManager" style="rounded=0;whiteSpace=wrap;html=1;fillColor=#FFFFFF;" parent="1" vertex="1">
          <mxGeometry x="900" y="320" width="120" height="30" as="geometry" />
        </mxCell>
        <mxCell id="OxKtT8ArJ8ornB0nfrq7-7" value="Kube-State-Metrics" style="rounded=0;whiteSpace=wrap;html=1;fillColor=#FFFFFF;" parent="1" vertex="1">
          <mxGeometry x="900" y="-254" width="120" height="30" as="geometry" />
        </mxCell>
        <mxCell id="g1CckV1s401VTeg4LiAm-1" value="ElastAlert" style="rounded=0;whiteSpace=wrap;html=1;fillColor=#FFFFFF;" vertex="1" parent="1">
          <mxGeometry x="900" y="360" width="120" height="30" as="geometry" />
        </mxCell>
      </root>
    </mxGraphModel>
  </diagram>
</mxfile>
